<?xml version="1.0" standalone="no"?>
<!DOCTYPE svg PUBLIC "-//W3C//DTD SVG 20010904//EN"
 "http://www.w3.org/TR/2001/REC-SVG-20010904/DTD/svg10.dtd">
<svg version="1.0" xmlns="http://www.w3.org/2000/svg"
 width="8000.000000pt" height="8000.000000pt" viewBox="0 0 8000.000000 8000.000000"
 preserveAspectRatio="xMidYMid meet">

<g transform="translate(0.000000,8000.000000) scale(0.100000,-0.100000)"
fill="#000000" stroke="none">
<path d="M39440 63734 c-943 -21 -1779 -70 -2635 -155 -5810 -576 -11246
-2731 -15552 -6165 -3880 -3094 -6643 -7067 -7958 -11439 -483 -1606 -760
-3189 -855 -4890 -5 -93 -15 -376 -21 -627 -21 -769 9 -1604 86 -2413 420
-4406 2243 -8585 5296 -12140 438 -510 787 -885 1303 -1400 566 -565 1047
-1006 1640 -1503 l209 -175 -6 -164 c-23 -571 -127 -1283 -277 -1893 -320
-1300 -910 -2552 -1688 -3584 l-75 -98 114 6 c891 53 1686 193 2514 441 1432
430 2810 1178 3925 2130 52 45 100 84 107 88 6 4 116 -47 245 -115 762 -398
1715 -832 2606 -1187 3150 -1255 6508 -1977 10007 -2151 954 -47 2196 -47
3150 0 4914 245 9573 1577 13658 3907 3292 1877 6109 4371 8199 7258 2319
3205 3704 6811 4063 10580 49 522 70 883 86 1498 25 917 -23 1928 -137 2887
-284 2413 -1005 4789 -2125 7010 -3005 5958 -8751 10624 -15829 12855 -2540
800 -5200 1272 -7925 1405 -557 27 -1645 45 -2125 34z m14285 -10507 c742 -90
1379 -286 1990 -615 575 -309 1055 -690 1510 -1197 2091 -2333 3507 -5044
4139 -7925 502 -2290 502 -4692 0 -6980 -632 -2880 -2060 -5613 -4140 -7925
-365 -406 -670 -673 -1074 -940 -231 -153 -348 -220 -601 -345 -588 -290
-1187 -459 -1889 -532 -185 -19 -27135 -19 -27320 0 -702 73 -1301 242 -1889
532 -253 125 -370 192 -601 345 -404 267 -709 534 -1074 940 -1372 1525 -2476
3258 -3241 5086 -1145 2737 -1528 5696 -1114 8624 467 3308 1979 6476 4354
9120 516 574 1005 951 1655 1273 654 326 1298 499 2060 555 25 2 6129 3 13565
3 12967 -1 13526 -2 13670 -19z"/>
<path d="M29485 44869 c-1123 -73 -2198 -547 -3065 -1351 -417 -386 -783 -883
-981 -1330 -252 -567 -274 -1081 -60 -1432 128 -211 307 -383 489 -468 133
-63 251 -89 427 -95 264 -9 465 25 1130 192 226 57 503 124 616 149 1198 267
2222 269 3418 6 98 -22 359 -85 582 -140 735 -184 850 -205 1139 -204 191 0
212 2 305 27 246 66 432 204 610 452 125 174 182 340 200 580 34 445 -216
1095 -634 1649 -457 604 -1072 1111 -1779 1465 -445 223 -952 384 -1432 456
-292 44 -692 62 -965 44z"/>
<path d="M50040 44873 c-1168 -60 -2265 -532 -3147 -1354 -398 -371 -706 -777
-923 -1214 -261 -524 -331 -993 -206 -1361 32 -96 74 -176 141 -269 178 -248
364 -386 610 -452 93 -25 114 -27 305 -27 289 -1 404 20 1139 204 223 55 484
118 582 140 1196 263 2220 261 3418 -6 113 -25 391 -93 616 -149 651 -164 878
-202 1138 -192 349 13 598 145 822 437 149 193 217 380 231 630 19 330 -96
748 -318 1158 -83 154 -272 437 -391 586 -585 730 -1407 1308 -2289 1611 -567
195 -1181 287 -1728 258z"/>
<path d="M42182 37689 c-84 -13 -206 -58 -278 -104 -33 -21 -130 -110 -219
-200 -166 -168 -282 -269 -426 -372 -331 -234 -662 -376 -1004 -428 -150 -24
-466 -16 -605 14 -206 44 -379 108 -578 211 -274 142 -491 307 -758 576 -173
175 -184 184 -275 227 -133 64 -211 81 -356 75 -94 -4 -134 -10 -198 -32 -102
-35 -204 -99 -277 -173 -78 -79 -105 -116 -143 -198 -107 -227 -94 -474 36
-691 77 -127 349 -399 612 -609 526 -422 1143 -711 1737 -814 379 -65 792 -61
1155 10 693 138 1347 482 1935 1021 149 136 312 314 359 392 162 270 140 597
-58 842 -150 186 -421 289 -659 253z"/>
<path d="M8505 57650 c-434 -92 -781 -398 -919 -811 -72 -215 -67 216 -64
-5041 l3 -4737 87 113 c231 299 467 564 758 856 437 437 924 838 1422 1170
l187 125 -2 3650 c-3 3421 -4 3654 -20 3720 -64 259 -164 441 -337 615 -182
183 -405 301 -654 345 -125 21 -345 19 -461 -5z"/>
<path d="M71026 57654 c-242 -44 -468 -164 -646 -344 -173 -174 -273 -356
-337 -615 -16 -66 -17 -299 -20 -3720 l-2 -3650 187 -125 c726 -485 1426
-1113 1981 -1779 61 -74 151 -185 199 -247 l87 -113 3 4737 c3 5257 8 4826
-64 5041 -139 416 -488 722 -923 811 -119 24 -343 26 -465 4z"/>
<path d="M13115 49368 c-1155 -394 -2101 -878 -2926 -1495 -2002 -1498 -3123
-3695 -3374 -6613 -85 -998 -62 -2200 61 -3170 238 -1878 821 -3376 1785
-4580 180 -225 326 -387 544 -605 288 -288 507 -478 838 -726 725 -544 1585
-1001 2599 -1380 199 -74 540 -190 545 -186 2 2 -51 125 -118 273 -760 1689
-1291 3386 -1613 5151 -358 1960 -447 3978 -265 5983 222 2449 861 4852 1898
7138 56 122 101 225 101 227 0 7 -10 5 -75 -17z"/>
<path d="M66810 49385 c0 -2 45 -105 101 -227 1120 -2468 1772 -5057 1944
-7718 56 -873 60 -1850 10 -2720 -156 -2709 -798 -5308 -1934 -7834 -67 -148
-120 -271 -118 -273 5 -4 346 112 545 186 1265 473 2257 1046 3122 1805 155
136 490 471 629 631 980 1119 1599 2468 1911 4166 210 1145 272 2604 165 3859
-237 2754 -1242 4854 -3042 6352 -858 714 -1957 1313 -3167 1724 -169 57 -166
57 -166 49z"/>
</g>
</svg>
